<?xml version="1.0" encoding="UTF-8"?>
<svg id="Layer_2" data-name="Layer 2" xmlns="http://www.w3.org/2000/svg" viewBox="0 0 56.32 46.56">
  <defs>
    <style>
      .cls-1 {
        fill: #231f20;
      }

      .cls-2 {
        fill: #fff;
      }
    </style>
  </defs>
  <g id="Ebene_1" data-name="Ebene 1">
    <g>
      <path class="cls-2" d="M2.13,1.5h14.98l10.8,13.75h.58L39.28,1.5h14.98v43.56h-14.76v-24.19h-.43l-10.51,11.74h-.72l-10.51-11.74h-.43v24.19H2.13V1.5Z"/>
      <g>
        <polygon class="cls-1" points="36.89 43.56 29.91 34.42 27.4 34.42 20.7 43.56 6.05 43.56 21.47 23.24 6.06 3 20.7 3 27.47 12.22 29.91 12.22 36.9 3 50.4 3 35.59 23.24 50.41 43.56 36.89 43.56"/>
        <path class="cls-2" d="M47.45,4.5l-12.42,16.97-1.29,1.77,1.29,1.77,12.44,17.05h-9.82l-6.08-7.97-.9-1.18h-4.01l-.9,1.23-5.8,7.92h-10.87l12.91-17,1.38-1.82-1.38-1.81L9.08,4.5h10.86l5.87,7.99.9,1.22h3.95l.9-1.19,6.08-8.03h9.81M53.36,1.5h-17.21l-6.98,9.22h-.94L21.46,1.5H3.03l16.56,21.75L3.03,45.06h18.43l6.7-9.15h1.01l6.98,9.15h17.21l-15.91-21.82L53.36,1.5h0Z"/>
      </g>
    </g>
  </g>
</svg>